<?xml version="1.0" ?><!DOCTYPE svg  PUBLIC '-//W3C//DTD SVG 1.1//EN'  'http://www.w3.org/Graphics/SVG/1.1/DTD/svg11.dtd'><svg enable-background="new 0 0 65 65" id="Layer_1" version="1.1" viewBox="0 0 65 65" xml:space="preserve" xmlns="http://www.w3.org/2000/svg" xmlns:xlink="http://www.w3.org/1999/xlink"><g><g><path d="M49.3,47.5L38.1,35.3c-1,0.8-1.9,1.5-3.1,2l12.7,13.8h16.8v-3.6H49.3z" fill="#788D9A"/></g><g><polygon fill="#788D9A" points="17,43.9 12.4,51.1 0.5,33.5 8.9,31.9   "/><polygon fill="#445C6C" points="6.8,32.3 15.8,45.8 17,43.9 8.9,31.9   "/><path d="M45,0.8L7.3,26.3c-0.8,0.6-1.1,1.7-0.5,2.5l12.3,18.3c0.6,0.8,1.7,1.1,2.5,0.5l37.8-25.4    c0.8-0.6,1.1-1.7,0.5-2.5L47.5,1.3C47,0.5,45.9,0.2,45,0.8z" fill="#DBDFE0"/><path d="M45,0.8L7.3,26.3c-0.8,0.6-1.1,1.7-0.5,2.5l0.7,1c-0.6-0.8-0.3-2,0.5-2.5L45.7,1.9c0.8-0.6,2-0.3,2.5,0.5    l-0.7-1C47,0.5,45.9,0.2,45,0.8z" fill="#EFEFEF"/><circle cx="50.8" cy="20.7" fill="#F1786B" r="2.2"/><circle cx="44.5" cy="24.9" fill="#F1786B" r="2.2"/></g><path d="M57.4,39.6v17.7c0,3.9,3.2,7.1,7.1,7.1v-32C60.6,32.5,57.4,35.7,57.4,39.6z" fill="#5AC8AE"/><path d="M57.4,39.6v2c0-3.9,3.2-7.1,7.1-7.1v-2C60.6,32.5,57.4,35.7,57.4,39.6z" fill="#70D6BB"/><circle cx="48.5" cy="49.3" fill="#445C6C" r="5"/><path d="M48.5,44.9c2.7,0,4.8,2.1,5,4.7c0-0.1,0-0.2,0-0.3c0-2.8-2.3-5-5-5c-2.8,0-5,2.3-5,5c0,0.1,0,0.2,0,0.3   C43.7,47,45.8,44.9,48.5,44.9z" fill="#607987"/><circle cx="48.5" cy="49.3" fill="#FBD984" r="2.7"/></g></svg>