<?xml version="1.0" ?><svg enable-background="new 0 0 64 64" height="64px" id="Layer_1_1_" version="1.1" viewBox="0 0 64 64" width="64px" xml:space="preserve" xmlns="http://www.w3.org/2000/svg" xmlns:xlink="http://www.w3.org/1999/xlink"><g><polyline fill="none" points="44,18 44,13.983 32,2 2,2 2,62 44,62    44,28  " stroke="#333333" stroke-miterlimit="10" stroke-width="2"/><polyline fill="none" points="44,14 32,14 32,2  " stroke="#333333" stroke-miterlimit="10" stroke-width="2"/><circle cx="18" cy="12" fill="none" r="6" stroke="#333333" stroke-miterlimit="10" stroke-width="2"/><polyline fill="none" points="13,16 10,28 13,26 15,30 17,18  " stroke="#333333" stroke-miterlimit="10" stroke-width="2"/><polyline fill="none" points="23,16 26,28 23,26 21,30 19,18  " stroke="#333333" stroke-miterlimit="10" stroke-width="2"/><rect fill="none" height="34" stroke="#333333" stroke-miterlimit="10" stroke-width="2" width="4" x="48" y="28"/><path d="M56,28H44c-1.105,0-2-0.895-2-2v-6   c0-1.105,0.895-2,2-2h12c1.105,0,2,0.895,2,2v6C58,27.105,57.105,28,56,28z" fill="none" stroke="#333333" stroke-miterlimit="10" stroke-width="2"/><path d="M60,28L60,28c1.105,0,2-0.895,2-2v-6   c0-1.105-0.895-2-2-2h0c-1.105,0-2,0.895-2,2v6C58,27.105,58.895,28,60,28z" fill="none" stroke="#333333" stroke-miterlimit="10" stroke-width="2"/><path d="M40,28L40,28c1.105,0,2-0.895,2-2v-6   c0-1.105-0.895-2-2-2h0c-1.105,0-2,0.895-2,2v6C38,27.105,38.895,28,40,28z" fill="none" stroke="#333333" stroke-miterlimit="10" stroke-width="2"/><line fill="none" stroke="#333333" stroke-miterlimit="10" stroke-width="2" x1="6" x2="40" y1="37" y2="37"/><line fill="none" stroke="#333333" stroke-miterlimit="10" stroke-width="2" x1="6" x2="40" y1="42" y2="42"/><line fill="none" stroke="#333333" stroke-miterlimit="10" stroke-width="2" x1="6" x2="40" y1="47" y2="47"/><line fill="none" stroke="#333333" stroke-miterlimit="10" stroke-width="2" x1="6" x2="40" y1="52" y2="52"/><line fill="none" stroke="#333333" stroke-miterlimit="10" stroke-width="2" x1="6" x2="40" y1="57" y2="57"/></g></svg>