<?xml version="1.0" ?><svg enable-background="new 0 0 64 64" height="64px" id="Layer_1_1_" version="1.1" viewBox="0 0 64 64" width="64px" xml:space="preserve" xmlns="http://www.w3.org/2000/svg" xmlns:xlink="http://www.w3.org/1999/xlink"><g><g><path d="M22.873,15.492C23.579,14.507,24,13.304,24,12c0-3.314-2.686-6-6-6s-6,2.686-6,6    c0,1.304,0.421,2.507,1.127,3.492L10,28l3-2l2,4l2.13-12.07C17.415,17.971,17.704,18,18,18s0.585-0.029,0.87-0.07L21,30l2-4l3,2    L22.873,15.492z" fill="#F9BA48"/></g><g><polygon fill="#333333" points="45,63 1,63 1,1 32.414,1 45,13.568 45,18 43,18 43,14.397 31.586,3 3,3 3,61 43,61 43,28 45,28       "/></g><g><polygon fill="#333333" points="44,15 31,15 31,2 33,2 33,13 44,13   "/></g><g><path d="M18,19c-3.86,0-7-3.14-7-7s3.14-7,7-7s7,3.14,7,7S21.86,19,18,19z M18,7c-2.757,0-5,2.243-5,5s2.243,5,5,5    s5-2.243,5-5S20.757,7,18,7z" fill="#333333"/></g><g><path d="M53,63h-6V27h6V63z M49,61h2V29h-2V61z" fill="#333333"/></g><g><path d="M56,29H44c-1.654,0-3-1.346-3-3v-6c0-1.654,1.346-3,3-3h12c1.654,0,3,1.346,3,3v6    C59,27.654,57.654,29,56,29z M44,19c-0.552,0-1,0.449-1,1v6c0,0.551,0.448,1,1,1h12c0.552,0,1-0.449,1-1v-6c0-0.551-0.448-1-1-1    H44z" fill="#333333"/></g><g><path d="M60,29c-1.654,0-3-1.346-3-3v-6c0-1.654,1.346-3,3-3s3,1.346,3,3v6C63,27.654,61.654,29,60,29z M60,19    c-0.552,0-1,0.449-1,1v6c0,0.551,0.448,1,1,1s1-0.449,1-1v-6C61,19.449,60.552,19,60,19z" fill="#333333"/></g><g><path d="M40,29c-1.654,0-3-1.346-3-3v-6c0-1.654,1.346-3,3-3s3,1.346,3,3v6C43,27.654,41.654,29,40,29z M40,19    c-0.552,0-1,0.449-1,1v6c0,0.551,0.448,1,1,1s1-0.449,1-1v-6C41,19.449,40.552,19,40,19z" fill="#333333"/></g><g><rect fill="#333333" height="2" width="34" x="6" y="36"/></g><g><rect fill="#333333" height="2" width="34" x="6" y="41"/></g><g><rect fill="#333333" height="2" width="34" x="6" y="46"/></g><g><rect fill="#333333" height="2" width="34" x="6" y="51"/></g><g><rect fill="#333333" height="2" width="34" x="6" y="56"/></g></g></svg>